<svg xmlns="http://www.w3.org/2000/svg" viewBox="0 0 32 32">
  <rect width="32" height="32" rx="8" fill="#f97316"/>
  <path d="M8 16H24M8 16C8 16 6 14.5 6 13C6 11.5 7 10 8.5 10C10 10 11 11 11 12.5C11 14 10 15 8 16ZM24 16C24 16 26 14.5 26 13C26 11.5 25 10 23.5 10C22 10 21 11 21 12.5C21 14 22 15 24 16ZM8 16C8 16 6 17.5 6 19C6 20.5 7 22 8.5 22C10 22 11 21 11 19.5C11 18 10 17 8 16ZM24 16C24 16 26 17.5 26 19C26 20.5 25 22 23.5 22C22 22 21 21 21 19.5C21 18 22 17 24 16Z" stroke="white" stroke-width="1.5" stroke-linecap="round" fill="none"/>
</svg>
